<svg xmlns="http://www.w3.org/2000/svg" xml:space="preserve" width="600" height="268"><rect id="backgroundrect" width="100%" height="100%" x="0" y="0" fill="none" stroke="none"/><style>.st0{fill:#fff}</style><g class="currentLayer"><path id="svg_1" d="M0 103.3v164.3l600-102.7V0z"/><g id="svg_2"><path class="st0" d="M104.7 165.8c6.1-3.5 13.1-12.1 13.1-23 0-10.8-7-16.4-13.8-17.9-6.8-1.5-15.5-.7-23.7.7L33 133.8v22l8.8-1.5v49.2L33 205v22l54.8-9.4c8.8-1.5 18.3-5.2 24.3-10.3 6.1-5.1 10.4-11.9 10.4-22.8 0-10.7-7-17.6-17.8-18.7zm-32.5-16.7 6.1-1.1c3.4-.6 4.7-.8 6.8.2 2 1 2.7 2.5 2.7 4.9 0 2.3-.7 4-2.7 5.7-2 1.7-3.4 2.1-6.8 2.6l-6.1 1v-13.3zm16.9 44c-2 1.7-3.4 2.3-6.8 2.9l-10.1 1.7v-14.9l10.1-1.7c3.4-.6 4.7-.6 6.8.4 2 1 2.7 2.9 2.7 5.3s-.7 4.6-2.7 6.3z" id="svg_3"/><path class="st0" d="m298.6 87.9-3 .5V169l-28-75.8-33.8 5.9-28.2 86-13.7-20.8c4.1-3.1 15.5-11.9 15.5-30.8 0-10.1-4.7-17.4-11.5-21-6.8-3.6-15.6-4.1-27.1-2.1l-40.6 7v93.3l30.6-5.3v-31.1l3.9-.7 14.9 28.5 23.7-4.1 11.5-2 20.3-3.5 3.5-13.7 26.6-4.6 3.7 12.5 28.7-5 30.6-5.3V83.1l-27.6 4.8zm-125.4 59.3c-1.2 1.2-3.4 2.2-6.8 2.8l-7.7 1.3v-16.2l7.7-1.3c3.4-.6 5.4-.3 6.8.6 1.4.7 3.4 1.7 3.4 5.8 0 3.9-1.9 5.6-3.4 7zm70 7.1 6.9-26.2 6.9 23.8-13.8 2.4z" id="svg_4"/><path class="st0" d="M396.1 106.1c0 6.8.7 16.8.7 16.8l-27.1-47.4-33.1 5.7v93.3l29.8-5.1v-35.2c0-6.8-.7-16.8-.7-16.8l28.4 47.1 31.8-5.5V65.7l-29.7 5.1v35.3h-.1z" id="svg_5"/><path class="st0" id="svg_6" d="m538.3 46.3-13.9 33.9-13.8-29.1-33.8 5.8 32.3 51.2v11.5l-42.4 7.4V58.7L436.2 64v93.3l72.9-12.7 25.7-4.4 4.9-.9v-36.5l32.4-62.4z"/></g></g></svg>