<svg width="144" height="33" xmlns="http://www.w3.org/2000/svg" xmlns:xlink="http://www.w3.org/1999/xlink"><defs><path id="path-1" d="M0 31.533h143.986V0H0z"/></defs><g id="Page-1" stroke="none" stroke-width="1" fill="none" fill-rule="evenodd"><g id="Desktop---ID-Scan" transform="translate(-648 -17)"><g id="Group-23" transform="translate(648 17.5)"><path d="M31.06 14.147 18.892 1.979 12.36 8.51l-5.637 5.636a2.734 2.734 0 0 0 0 3.866L18.892 30.18 31.06 18.013a2.734 2.734 0 0 0 0-3.866" id="Fill-1" fill="#23313A"/><path d="M6.723 14.147 18.891 1.978a4.614 4.614 0 0 0-6.525 0L1.227 13.116a4.192 4.192 0 0 0 0 5.927l3.903 3.902 7.236 7.236a4.614 4.614 0 0 0 6.525 0L6.723 18.013a2.734 2.734 0 0 1 0-3.866" id="Fill-3" fill="#2C92A9"/><path d="m36.555 13.116-3.902-3.902-7.236-7.236a4.614 4.614 0 0 0-6.526 0L31.06 14.147a2.734 2.734 0 0 1 0 3.866L18.89 30.182a4.615 4.615 0 0 0 6.526 0l11.138-11.139a4.191 4.191 0 0 0 0-5.927" id="Fill-6" fill="#2AB496"/><path d="M16.448 21.695h-.006a1.447 1.447 0 0 1-1.024-.43l-3.47-3.518a1.447 1.447 0 0 1 2.06-2.032l2.448 2.482 6.471-6.453a1.447 1.447 0 0 1 2.043 2.049l-7.501 7.48a1.45 1.45 0 0 1-1.021.422" id="Fill-9" fill="#FEFEFE"/><path d="M51.857 10.58c.975 0 1.713.288 2.253.88.54.592.855 1.491.938 2.652h-6.6c.193-1.07.563-1.922 1.104-2.537.588-.67 1.341-.995 2.305-.995Zm7.634 5.121c0-2.782-.666-4.973-1.98-6.51-1.327-1.552-3.225-2.34-5.639-2.34-1.518 0-2.915.394-4.15 1.17-1.237.778-2.21 1.876-2.89 3.267-.677 1.38-1.02 2.967-1.02 4.713v.473c0 2.624.793 4.759 2.359 6.346 1.566 1.589 3.633 2.394 6.144 2.394 1.462 0 2.804-.295 3.987-.878a7.262 7.262 0 0 0 2.866-2.487l.152-.227-2.527-2.411-.22.284c-1.05 1.35-2.37 2.005-4.038 2.005-1.174 0-2.118-.371-2.888-1.136-.696-.692-1.126-1.63-1.28-2.79H59.49V15.7Z" id="Fill-11" fill="#23313A"/><path id="Fill-13" fill="#23313A" d="M70.525 7.167 67.152 18.57 63.733 7.167h-4.678l6.194 17.731h3.794l6.145-17.731z"/><path d="M78.83 5.403c.782 0 1.402-.226 1.842-.674.44-.445.662-1.007.662-1.672 0-.675-.222-1.245-.66-1.696C80.233.91 79.613.68 78.83.68c-.783 0-1.401.23-1.837.684-.432.45-.651 1.02-.651 1.694 0 .664.22 1.226.653 1.67.435.449 1.053.676 1.835.676" id="Fill-15" fill="#2AB496"/><mask id="mask-2" fill="#fff"><use xlink:href="#path-1"/></mask><path id="Fill-17" fill="#2AB496" mask="url(#mask-2)" d="M76.579 24.898h4.487V7.167h-4.487z"/><path d="M94.185 12.45v7.132c-.672 1.249-1.692 1.856-3.116 1.856-1.128 0-1.972-.432-2.581-1.32-.627-.913-.945-2.218-.945-3.88 0-1.903.32-3.336.953-4.26.615-.898 1.467-1.334 2.605-1.334 1.422 0 2.432.59 3.084 1.806Zm0-12.45v8.288c-1.093-.954-2.456-1.437-4.063-1.437-2.15 0-3.888.848-5.168 2.52-1.26 1.644-1.898 3.843-1.898 6.535 0 2.828.646 5.105 1.922 6.765 1.296 1.688 3.015 2.543 5.112 2.543 1.744 0 3.203-.558 4.347-1.663l.144 1.347h4.091V0h-4.487Z" id="Fill-19" fill="#2AB496" mask="url(#mask-2)"/><path d="M108.303 10.58c.976 0 1.713.288 2.254.88.54.592.855 1.491.938 2.652h-6.6c.193-1.07.563-1.922 1.103-2.537.588-.67 1.342-.995 2.305-.995Zm7.634 5.121c0-2.782-.666-4.973-1.98-6.51-1.327-1.552-3.224-2.34-5.638-2.34-1.519 0-2.915.394-4.152 1.17-1.235.778-2.208 1.876-2.889 3.267-.677 1.38-1.02 2.967-1.02 4.713v.473c0 2.624.794 4.759 2.36 6.346 1.566 1.589 3.633 2.394 6.143 2.394 1.463 0 2.805-.295 3.988-.878a7.261 7.261 0 0 0 2.865-2.487l.153-.227-2.527-2.411-.221.284c-1.05 1.35-2.37 2.005-4.037 2.005-1.174 0-2.119-.371-2.889-1.136-.696-.692-1.126-1.63-1.28-2.79h11.124V15.7Z" id="Fill-20" fill="#23313A" mask="url(#mask-2)"/><path d="M126.576 6.851c-1.868 0-3.442.615-4.691 1.829l-.084-1.513h-4.249v17.731h4.487V12.502c.702-1.25 1.727-1.858 3.132-1.858.962 0 1.653.226 2.055.673.41.457.619 1.194.619 2.19v11.391h4.486V13.281c-.066-4.267-2.002-6.43-5.755-6.43" id="Fill-21" fill="#23313A" mask="url(#mask-2)"/><path d="M143.587 21.24c-.426.1-.853.15-1.268.15-.563 0-.946-.11-1.138-.325-.203-.227-.305-.629-.305-1.197V10.66h3.015V7.167h-3.015V3.015h-4.487v4.152h-2.81v3.492h2.81v9.351c0 3.453 1.597 5.204 4.746 5.204a9.82 9.82 0 0 0 2.612-.375l.24-.066v-3.626l-.4.093Z" id="Fill-22" fill="#23313A" mask="url(#mask-2)"/></g></g></g></svg>