<svg id="layer_1" data-name="layer 1" xmlns="http://www.w3.org/2000/svg" width="174.97" height="49.854" viewBox="0 0 87.485 24.927"><defs><style>.cls-3{fill:#0084c1}</style></defs><path d="M42.46 13.894a7.08 7.08 0 0 0-7.081 7.08v7.966h19.869l2.818-5.31h-17.13V21.5a2.298 2.298 0 0 1 2.297-2.297l11.175-.001a7.523 7.523 0 1 0 0-15.047l-13.298.003a5.31 5.31 0 0 0-5.31 5.31h18.22a2.245 2.245 0 0 1 2.263 2.154 2.21 2.21 0 0 1-2.208 2.271Z" transform="translate(-4.146 -4.013)" style="fill:#555e63"/><path d="M16.863 23.616a7.068 7.068 0 0 1 0-14.137l14.348-.01V4.157l-14.686.01a12.38 12.38 0 0 0 0 24.76l14.686.012V13.893H15.28v5.311h10.375v4.425Z" transform="translate(-4.146 -4.013)" style="fill:#f05f00"/><path class="cls-3" d="M75.703 25.926h-.855a1.507 1.507 0 1 0 0 3.014h.855a1.507 1.507 0 0 0 0-3.014Zm-.031 2.384h-.794a.877.877 0 0 1 0-1.754h.794a.877.877 0 0 1 0 1.754Zm-5.978-.877A1.508 1.508 0 0 0 71.2 28.94h1.722v-.63H71.23a.877.877 0 0 1 0-1.754h1.692v-.63H71.2a1.508 1.508 0 0 0-1.507 1.507Z" transform="translate(-4.146 -4.013)"/><path class="cls-3" d="m76.399 21.913-.657 1.805-.657-1.805h-.832l-1.117 3.013h.709l.824-2.314.734 2.017h.678l.734-2.017.824 2.314h.708l-1.116-3.013h-.832z"/><circle class="cls-3" cx="64.771" cy="24.515" r=".412"/><path class="cls-3" d="M80.117 7.013a6.127 6.127 0 0 0-1.705-2.063 4.75 4.75 0 0 0-2.891-.937 4.523 4.523 0 0 0-2.814.937 6.127 6.127 0 0 0-1.704 2.063A6422.75 6422.75 0 0 1 59.41 28.94h6.343l9.767-18.713 4.59 8.795h-7.067l2.491 4.757h7.06l2.693 5.161h6.343S84.758 15.855 80.117 7.013Z" transform="translate(-4.146 -4.013)"/></svg>