<svg version="1.1" id="Tryb_izolacji" xmlns="http://www.w3.org/2000/svg" x="0" y="0" width="164.49" height="44.137" xml:space="preserve"><path fill="#3A5C8D" d="M24.706 2.762H2.637a2.636 2.636 0 0 0-2.634 2.63V26.77l.291.009c13.327-.001 24.199-10.744 24.412-24.017"/><path fill="#3A5C8D" d="M35.984 2.762h-2.91C32.859 20.653 18.24 35.139.295 35.139L0 35.126v3.607a2.648 2.648 0 0 0 2.637 2.64h33.347a2.651 2.651 0 0 0 2.638-2.64V5.393a2.643 2.643 0 0 0-2.638-2.631"/><path fill="#262C49" d="M53.665 43.857c-1.021-.278-1.762-1.023-1.762-2.041 0-1.208.927-2.13 2.133-2.13.319 0 .509.04.881.04 2.317 0 3.987-.874 3.987-4.17V14.514c0-1.439 1.016-2.506 2.456-2.506 1.39 0 2.412 1.067 2.412 2.506v21.699c0 5.372-3.199 7.924-7.975 7.924-.88 0-1.53-.092-2.132-.28m10.94-39.82c0 1.758-1.485 3.15-3.245 3.15-1.806 0-3.244-1.393-3.244-3.15 0-1.766 1.438-3.155 3.244-3.155 1.76 0 3.245 1.389 3.245 3.155m12.657 19.747c0 1.974-1.669 3.534-3.641 3.534-2.026 0-3.641-1.56-3.641-3.534 0-1.977 1.615-3.541 3.641-3.541 1.972 0 3.641 1.564 3.641 3.541m6.221 9.503V2.502C83.483 1.063 84.499 0 85.94 0c1.388 0 2.411 1.063 2.411 2.502v30.785c0 1.439-1.023 2.506-2.411 2.506-1.392 0-2.457-1.066-2.457-2.506m29.974-11.775v11.819c0 1.441-1.023 2.462-2.413 2.462-1.389 0-2.407-1.066-2.407-2.462v-.276c-1.671 1.763-4.083 2.738-7.002 2.738-4.727 0-7.932-2.646-7.932-6.584 0-3.986 3.248-6.489 8.395-6.489h6.445v-1.492c0-3.104-1.764-4.861-4.871-4.861-1.899 0-3.615.693-5.047 2.132-.606.51-1.118.739-1.674.739-1.16 0-2.13-.967-2.13-2.039 0-.698.324-1.34.97-1.99 1.951-2.041 4.962-3.2 8.301-3.2 5.888-.001 9.365 3.521 9.365 9.503m-4.914 5.146v-.416h-5.844c-2.642 0-4.031.974-4.031 2.78 0 1.854 1.573 3.017 3.985 3.017 3.293 0 5.89-2.365 5.89-5.381m35.069-2.734c0 6.862-4.731 11.869-11.127 11.869-3.248 0-5.979-1.254-7.698-3.335v.829c0 1.486-1.017 2.506-2.361 2.506-1.438 0-2.461-1.066-2.461-2.506V2.503c0-1.44 1.068-2.502 2.461-2.502 1.388 0 2.409 1.022 2.409 2.502v12.844c1.72-2.088 4.402-3.339 7.6-3.339 6.446 0 11.177 5.052 11.177 11.916m-5.008-.044c0-4.267-2.922-7.422-6.956-7.422-4.124 0-6.861 3.012-6.861 7.466 0 4.401 2.781 7.419 6.861 7.419 4.034 0 6.956-3.154 6.956-7.463m9.103 8.386c-.465-.413-.696-.922-.696-1.576 0-1.154.973-2.126 2.177-2.126.511 0 1.022.178 1.532.646 1.437 1.345 3.153 2.366 5.331 2.366 1.992 0 3.661-.841 3.661-2.551 0-1.481-1.341-2.085-3.198-2.829l-2.319-.973c-3.66-1.531-5.932-3.199-5.932-6.633 0-4.219 3.522-6.581 8.021-6.581 2.923 0 5.469 1.066 7.233 2.78.508.463.741 1.021.741 1.623 0 1.159-.926 2.087-2.041 2.087-.511 0-.926-.228-1.532-.695-1.205-.927-2.781-1.572-4.496-1.572-1.807 0-3.107.691-3.107 2.174 0 1.257.931 1.856 3.014 2.692l2.179.879c4.123 1.716 6.215 3.522 6.215 6.859 0 4.589-3.893 6.958-8.439 6.958-3.525-.001-6.4-1.44-8.344-3.528"/></svg>