<?xml version="1.0" standalone="no"?>
<!DOCTYPE svg PUBLIC "-//W3C//DTD SVG 20010904//EN"
 "http://www.w3.org/TR/2001/REC-SVG-20010904/DTD/svg10.dtd">
<svg version="1.0" xmlns="http://www.w3.org/2000/svg"
 width="256.000000pt" height="256.000000pt" viewBox="0 0 256.000000 256.000000"
 preserveAspectRatio="xMidYMid meet">
<metadata>
Created by potrace 1.15, written by Peter Selinger 2001-2017
</metadata>
<g transform="translate(0.000000,256.000000) scale(0.100000,-0.100000)"
fill="#000000" stroke="none">
<path d="M1010 2450 c-30 -5 -89 -25 -243 -83 -19 -7 -24 -12 -16 -18 8 -4 -4
-12 -32 -19 -58 -16 -67 -22 -43 -31 14 -6 15 -8 3 -8 -9 -1 -24 -10 -34 -21
-18 -19 -17 -20 4 -20 21 0 21 -1 5 -25 -9 -14 -12 -25 -6 -25 9 0 -10 -70
-26 -94 -16 -25 -30 -105 -30 -175 0 -58 8 -103 33 -186 28 -92 31 -111 19
-118 -22 -13 -17 -78 15 -173 33 -98 58 -137 89 -142 14 -2 25 -15 33 -40 17
-55 75 -159 124 -222 24 -30 48 -74 54 -97 10 -37 9 -48 -9 -83 -17 -34 -32
-45 -108 -80 -48 -22 -117 -57 -154 -76 -37 -19 -116 -51 -175 -70 -59 -19
-123 -44 -141 -54 -18 -11 -41 -20 -51 -20 -22 0 -71 -47 -71 -67 0 -8 51 -65
113 -127 174 -175 349 -278 583 -343 95 -27 108 -28 334 -28 226 0 239 1 334
28 212 59 396 162 549 307 97 92 174 187 161 199 -22 20 -354 218 -409 243
-33 16 -71 34 -84 41 -26 13 -99 99 -156 183 -47 71 -90 88 -81 32 21 -129 20
-150 -19 -218 -20 -36 -60 -115 -90 -175 l-54 -111 -88 -22 c-74 -19 -98 -21
-151 -13 -36 6 -78 19 -95 32 -44 30 -107 110 -107 135 0 34 36 73 65 69 30
-3 28 -1 49 -42 9 -18 22 -33 29 -32 8 0 9 2 1 5 -8 3 -6 17 8 45 l19 40 -35
54 c-20 29 -36 58 -36 63 0 11 72 42 98 42 30 0 120 47 132 69 13 26 9 26 -41
1 -50 -26 -157 -37 -188 -20 -16 8 -21 9 -16 1 4 -7 -16 2 -44 19 -27 17 -60
48 -72 68 -13 20 -35 53 -50 73 -16 20 -40 60 -55 90 -15 30 -44 81 -66 115
-21 34 -38 64 -38 69 0 4 -6 21 -14 38 -8 18 -16 48 -19 67 -4 35 16 100 32
100 4 0 8 13 9 30 1 41 6 46 53 54 32 5 52 1 94 -19 51 -24 78 -45 57 -45 -6
0 -1 -17 9 -37 24 -47 24 -85 0 -161 -16 -54 -17 -64 -4 -90 20 -41 50 -53 85
-33 35 20 35 24 -3 38 -17 7 -33 21 -36 32 -3 12 -12 21 -20 21 -8 0 -13 6
-10 13 2 6 11 11 19 9 23 -4 27 43 13 145 -9 68 -16 89 -33 102 -71 53 -78 56
-156 61 l-79 5 -13 45 c-26 86 -33 173 -19 222 11 37 56 77 93 84 19 4 64 18
101 32 36 13 100 31 141 38 41 8 103 26 138 40 67 29 113 28 157 0 25 -16 61
-100 75 -176 5 -25 22 -72 39 -105 17 -33 31 -65 31 -72 0 -7 11 -38 25 -69
26 -59 44 -66 56 -22 4 14 17 39 29 56 22 30 22 34 10 109 -27 169 -79 321
-119 350 -9 6 -47 41 -85 77 -38 37 -81 69 -95 73 -14 3 -31 10 -38 15 -7 5
-31 12 -55 14 -24 3 -50 7 -58 11 -22 9 -109 11 -150 3z"/>
</g>
</svg>
