<svg height="64" viewBox="-97.62 -147.24 64 64.000001" width="64" xmlns="http://www.w3.org/2000/svg"><g stroke-width=".057083" transform="matrix(1.7878595 0 0 1.7878595 67.978755 97.268046)"><path d="m-56.827035-118.86157c0 9.88535-8.01303 17.89821-17.898498 17.89821-9.884669 0-17.898499-8.01286-17.898499-17.89821 0-9.88467 8.01383-17.8985 17.898499-17.8985 9.885525 0 17.898498 8.01383 17.898498 17.8985" fill="#1a1918"/><path d="m-74.424249-125.82639 4.631831 11.43179-6.996267-5.51091zm8.228291 14.06526-7.124533-17.14597c-.20333-.4944-.610161-.75612-1.103701-.75612-.49451 0-.930739.26172-1.134126.75612l-7.819804 18.80692h2.675025l3.095499-7.75416 9.237575 7.46309c.371611.30031.639616.43628.988222.43628.69784 0 1.307829-.52333 1.307829-1.27843 0-.12295-.0435-.31806-.121986-.52773z" fill="#fff"/></g></svg>