<svg enable-background="new 0 0 800 600" height="64" viewBox="0 0 31.999805 31.999593" width="64" xmlns="http://www.w3.org/2000/svg"><g transform="matrix(.84832704 0 0 .84832704 -7.883573 -9.449691)"><g stroke-width=".221737"><path d="m45.535541 38.763883c-2.012926 1.049258-12.440762 5.33676-14.660791 6.494004-2.220028 1.157688-3.453328 1.146379-5.207044.307993-1.753716-.838387-12.850753-5.320795-14.84971-6.276259-.9991457-.477621-1.52444-.880517-1.52444-1.261239v-3.812763s14.446814-3.145114 16.779263-3.981727c2.332227-.836834 3.141345-.866991 5.12611-.139916 1.984988.727075 13.852782 2.868387 15.814487 3.586814 0 0-.000887 3.405211-.000887 3.758659.000222.376953-.452343.790492-1.476988 1.324434z" fill="#a41e11"/><path d="m45.535541 34.950011c-2.012926 1.048815-12.440762 5.33676-14.660791 6.494004-2.220028 1.157688-3.453328 1.146379-5.207044.307993-1.753937-.837944-12.850753-5.321239-14.84971-6.276259-1.9989567-.955464-2.0408649-1.613135-.07716-2.381896 1.963479-.769205 12.999538-5.099059 15.332209-5.935893 2.332227-.836391 3.141345-.866991 5.12611-.139694 1.984988.727075 12.350515 4.85293 14.311999 5.571357 1.961927.719093 2.037317 1.31113.02439 2.360388z" fill="#d82c20"/><path d="m45.535541 32.546385c-2.012926 1.049258-12.440762 5.33676-14.660791 6.494447-2.220028 1.157244-3.453328 1.145936-5.207044.307549-1.753937-.837943-12.850753-5.320795-14.84971-6.276259-.9991457-.477621-1.52444-.880073-1.52444-1.260795v-3.813207s14.446814-3.144892 16.779263-3.981726c2.332227-.836613 3.141345-.866991 5.12611-.139916 1.984988.727075 13.852782 2.867943 15.814487 3.586592 0 0-.000887 3.405211-.000887 3.759103.000222.37673-.452343.79027-1.476988 1.324212z" fill="#a41e11"/><path d="m45.535541 28.732513c-2.012926 1.049258-12.440762 5.33676-14.660791 6.494447-2.220028 1.157244-3.453328 1.145936-5.207044.307549-1.753937-.837943-12.850753-5.321017-14.84971-6.276259-1.9989567-.955242-2.0408649-1.612913-.07716-2.382118 1.963479-.768761 12.999538-5.098836 15.332209-5.935449 2.332227-.836613 3.141345-.866991 5.12611-.139916 1.984988.727075 12.350515 4.852709 14.311999 5.571358 1.961927.71887 2.037317 1.311129.02439 2.360388z" fill="#d82c20"/><path d="m45.535541 26.09828c-2.012926 1.049258-12.440762 5.336982-14.660791 6.494669-2.220028 1.157244-3.453328 1.145936-5.207044.307549-1.753937-.837943-12.850753-5.321017-14.84971-6.276258-.9991457-.477621-1.52444-.880295-1.52444-1.260796v-3.813207s14.446814-3.144892 16.779263-3.981505c2.332227-.836834 3.141345-.86699 5.12611-.139916 1.984988.727075 13.852782 2.867944 15.814487 3.586592 0 0-.000887 3.405212-.000887 3.758882.000222.376509-.452343.790048-1.476988 1.32399z" fill="#a41e11"/><path d="m45.535541 22.284408c-2.012926 1.049258-12.440762 5.336982-14.660791 6.494448-2.220028 1.157244-3.453328 1.145935-5.207044.30777s-12.850753-5.321017-14.84971-6.276259c-1.9989567-.955242-2.0408649-1.613134-.077164-2.382117 1.963479-.768984 12.999538-5.098615 15.332209-5.93545 2.332227-.836834 3.141345-.866991 5.12611-.139694 1.984988.727075 12.350515 4.852709 14.311999 5.571358 1.961927.718427 2.037317 1.310907.02439 2.359944z" fill="#d82c20"/></g><path d="m260.63 258.13-5.33-8.86-17.02-1.53 12.7-4.58-3.81-7.03 11.89 4.65 11.21-3.67-3.03 7.27 11.43 4.28-14.74 1.53z" fill="#fff" transform="matrix(.22173675 0 0 .22173675 -28.695271 -36.524613)"/><path d="m232.24 275.77 39.42-6.05-11.91 17.46z" fill="#fff" transform="matrix(.22173675 0 0 .22173675 -28.695271 -36.524613)"/><ellipse cx="20.44381" cy="21.401894" fill="#fff" rx="4.671772" ry="1.810924" stroke-width=".221737"/><path d="m319.42 260.05-23.31 9.21-.02-18.43z" fill="#7a0c00" transform="matrix(.22173675 0 0 .22173675 -28.695271 -36.524613)"/><path d="m296.11 269.26-2.53.99-23.3-9.21 25.81-10.21z" fill="#ad2115" transform="matrix(.22173675 0 0 .22173675 -28.695271 -36.524613)"/></g></svg>