<svg xmlns="http://www.w3.org/2000/svg" xmlns:xlink="http://www.w3.org/1999/xlink" version="1.1" style="" xml:space="preserve" width="600" height="268"><rect id="backgroundrect" width="100%" height="100%" x="0" y="0" fill="none" stroke="none" class="" style=""/>
<style type="text/css">
	.st0{fill:#FFFFFF;}
</style>


<g class="currentLayer" style=""><title>Layer 1</title><polygon points="0,103.29998779296875 0,267.6000061035156 600,164.89999389648438 600,0 " id="svg_1" class=""/><g id="svg_2" class="">
	<path class="st0" d="M104.69999999999999,165.8 c6.1,-3.5 13.1,-12.1 13.1,-23 c0,-10.8 -7,-16.4 -13.8,-17.9 c-6.8,-1.5 -15.5,-0.7000000000000002 -23.7,0.7000000000000002 L33,133.8 v22 l8.8,-1.5 v49.2 l-8.8,1.5 v22 l54.8,-9.4 c8.8,-1.5 18.3,-5.2 24.3,-10.3 c6.1,-5.1 10.4,-11.9 10.4,-22.8 C122.5,173.8 115.5,166.89999999999998 104.69999999999999,165.8 L104.69999999999999,165.8 zM72.2,149.10000000000002 l6.1,-1.1 c3.4,-0.6000000000000002 4.7,-0.8 6.8,0.2 c2,1 2.7,2.5 2.7,4.9 c0,2.3 -0.7000000000000002,4 -2.7,5.7 c-2,1.7000000000000002 -3.4,2.1 -6.8,2.6 l-6.1,1 V149.10000000000002 L72.2,149.10000000000002 zM89.1,193.10000000000002 c-2,1.7000000000000002 -3.4,2.3 -6.8,2.9 l-10.1,1.7000000000000002 v-14.9 l10.1,-1.7000000000000002 c3.4,-0.6000000000000002 4.7,-0.6000000000000002 6.8,0.4 c2,1 2.7,2.9 2.7,5.3 C91.8,189.2 91.1,191.39999999999998 89.1,193.10000000000002 L89.1,193.10000000000002 z" id="svg_3"/>
	<path class="st0" d="M298.6,87.89999999999998 l-3,0.5 V169 l-28,-75.8 l-33.8,5.9 l-28.2,86 l-13.7,-20.8 c4.1,-3.1 15.5,-11.9 15.5,-30.8 c0,-10.1 -4.7,-17.4 -11.5,-21 c-6.8,-3.6 -15.6,-4.1 -27.1,-2.1 l-40.6,7 v93.3 l30.6,-5.3 v-31.1 l3.9,-0.7000000000000002 l14.9,28.5 l23.7,-4.1 l11.5,-2 l20.3,-3.5 l3.5,-13.7 l26.6,-4.6 l3.7,12.5 l28.7,-5 v0 l30.6,-5.3 v-93.3 L298.6,87.89999999999998 L298.6,87.89999999999998 L298.6,87.89999999999998 zM173.2,147.2 c-1.2,1.2 -3.4,2.2 -6.8,2.8 l-7.7,1.3 v-16.2 l7.7,-1.3 c3.4,-0.6000000000000002 5.4,-0.3000000000000001 6.8,0.6000000000000002 c1.4,0.7000000000000002 3.4,1.7000000000000002 3.4,5.8 C176.6,144.10000000000002 174.7,145.8 173.2,147.2 L173.2,147.2 zM243.2,154.3 l6.9,-26.2 l6.9,23.8 L243.2,154.3 L243.2,154.3 z" id="svg_4"/>
	<path class="st0" d="M396.1,106.10000000000002 c0,6.8 0.7000000000000002,16.8 0.7000000000000002,16.8 l-27.1,-47.4 l-33.1,5.7 v93.3 l29.8,-5.1 v-35.2 c0,-6.8 -0.7000000000000002,-16.8 -0.7000000000000002,-16.8 l28.4,47.1 l31.8,-5.5 v-93.3 l-29.7,5.1 V106.10000000000002 L396.1,106.10000000000002 z" id="svg_5"/>
	<polygon class="st0" points="538.2999877929688,46.30000305175781 524.4000244140625,80.20001220703125 510.5999755859375,51.100006103515625 476.79998779296875,56.899993896484375 509.0999755859375,108.10000610351562 509.0999755859375,119.60000610351562 466.70001220703125,127 466.70001220703125,58.69999694824219 436.20001220703125,64 436.20001220703125,157.29998779296875 509.0999755859375,144.60000610351562 534.7999877929688,140.20001220703125 539.7000122070312,139.29998779296875 539.7000122070312,102.79998779296875 572.0999755859375,40.399993896484375 " id="svg_6"/>
</g></g></svg>