<?xml version="1.0" encoding="UTF-8"?>
<svg width="144px" height="33px" viewBox="0 0 144 33" version="1.1" xmlns="http://www.w3.org/2000/svg" xmlns:xlink="http://www.w3.org/1999/xlink">
    <!-- Generator: Sketch 51.3 (57544) - http://www.bohemiancoding.com/sketch -->
    <title>Group 23</title>
    <desc>Created with Sketch.</desc>
    <defs>
        <polygon id="path-1" points="0 31.5328594 143.986091 31.5328594 143.986091 8.62706169e-05 0 8.62706169e-05"></polygon>
    </defs>
    <g id="Page-1" stroke="none" stroke-width="1" fill="none" fill-rule="evenodd">
        <g id="Desktop---ID-Scan" transform="translate(-648.000000, -17.000000)">
            <g id="Group-23" transform="translate(648.000000, 17.500000)">
                <path d="M31.0596651,14.146742 L18.8916259,1.97870287 L12.3596462,8.51068262 L6.72315544,14.146742 C5.65555656,15.2143409 5.65555656,16.9449295 6.72315544,18.0129597 L18.8916259,30.1814302 L31.0596651,18.0129597 C32.127264,16.9449295 32.127264,15.2143409 31.0596651,14.146742" id="Fill-1" fill="#23313A"></path>
                <path d="M6.72319858,14.146742 L18.8912377,1.97827152 C17.0894759,0.176078329 14.1674901,0.176078329 12.3657283,1.97827152 L1.22732893,13.1162395 C-0.409224671,14.7532245 -0.409224671,17.4069086 1.22732893,19.0434622 L5.12978028,22.9450509 L12.3657283,30.1814302 C14.1674901,31.9836234 17.0894759,31.9836234 18.8912377,30.1814302 L6.72319858,18.0129597 C5.65559969,16.9453608 5.65559969,15.2147723 6.72319858,14.146742" id="Fill-3" fill="#2C92A9"></path>
                <path d="M36.5554053,13.1163689 L32.6533853,9.21434891 L25.4174374,1.97840092 C23.6152442,0.176207735 20.6936897,0.176207735 18.8914965,1.97840092 L31.0595357,14.1468714 C32.1271346,15.2144703 32.1271346,16.9454902 31.0595357,18.0130891 L18.8914965,30.1815596 C20.6936897,31.9833215 23.6152442,31.9833215 25.4174374,30.1815596 L36.5554053,19.0431603 C38.1919589,17.4066067 38.1919589,14.7529225 36.5554053,13.1163689" id="Fill-6" fill="#2AB496"></path>
                <path d="M16.4475794,21.6949896 L16.4415404,21.6949896 C16.0563421,21.6932642 15.6879666,21.5384085 15.4175082,21.2640679 L11.9472726,17.7468149 C11.3865136,17.1778601 11.3925526,16.2616662 11.9615073,15.7009072 C12.5300307,15.1397168 13.4462246,15.1457558 14.007415,15.7147105 L16.4562064,18.1967161 L22.9273654,11.743674 C23.4928693,11.1794642 24.4090633,11.1807582 24.9737044,11.7466935 C25.5374829,12.3121974 25.5366202,13.2283913 24.9702536,13.7926011 L17.4690235,21.272695 C17.1977024,21.542722 16.8301896,21.6949896 16.4475794,21.6949896" id="Fill-9" fill="#FEFEFE"></path>
                <path d="M51.8566639,10.5804873 C52.8323846,10.5804873 53.569567,10.8681998 54.1100524,11.4608789 C54.6496751,12.052264 54.9654256,12.9512038 55.0482454,14.1124063 L48.4485432,14.1124063 C48.6409267,13.0426507 49.011459,12.1898656 49.551513,11.5747561 C50.1398786,10.9057275 50.8934525,10.5804873 51.8566639,10.5804873 Z M59.4907508,15.7010797 C59.4907508,12.9188523 58.8247416,10.7284414 57.5104088,9.19066763 C56.1835667,7.63865923 54.2864758,6.8510085 51.8721926,6.8510085 C50.3538298,6.8510085 48.9571085,7.24526522 47.7212819,8.02170077 C46.4850239,8.79856767 45.5127541,9.89722398 44.8316476,11.2879063 C44.1548546,12.6686675 43.8114975,14.2547528 43.8114975,16.0008701 L43.8114975,16.4744958 C43.8114975,19.0979853 44.6051872,21.2327517 46.1705675,22.820131 C47.7372419,24.4088044 49.8042859,25.2141406 52.3147609,25.2141406 C53.7774792,25.2141406 55.1189873,24.9186638 56.3021888,24.3359058 C57.4901352,23.7501283 58.453778,22.9137346 59.1676673,21.8491552 L59.319935,21.6218322 L56.7930686,19.2109998 L56.5722158,19.4952615 C55.5231651,20.8445339 54.202362,21.5001906 52.5351823,21.5001906 C51.3614706,21.5001906 50.4168073,21.1287956 49.646842,20.3640066 C48.9506382,19.6716849 48.5205791,18.7339233 48.3665861,17.5735835 L59.4907508,17.5735835 L59.4907508,15.7010797 Z" id="Fill-11" fill="#23313A"></path>
                <polygon id="Fill-13" fill="#23313A" points="70.5253234 7.16675895 67.151711 18.5704404 63.7332378 7.16675895 59.0547822 7.16675895 65.2490125 24.8979588 69.0427629 24.8979588 75.1882503 7.16675895"></polygon>
                <path d="M78.8301212,5.40256797 C79.6121644,5.40256797 80.2320188,5.17653896 80.6719989,4.72922581 C81.1115477,4.28406943 81.3341259,3.72158501 81.3341259,3.0568699 C81.3341259,2.38223368 81.1119791,1.81241625 80.6737243,1.36122093 C80.2328815,0.908731543 79.6125957,0.678820349 78.8301212,0.678820349 C78.0472154,0.678820349 77.4286551,0.909162896 76.9929884,1.36294634 C76.5607727,1.81371031 76.3416453,2.38309638 76.3416453,3.0568699 C76.3416453,3.7207223 76.5616354,4.28277537 76.9947139,4.72793175 C77.4299491,5.17567625 78.0476467,5.40256797 78.8301212,5.40256797" id="Fill-15" fill="#2AB496"></path>
                <mask id="mask-2" fill="white">
                    <use xlink:href="#path-1"></use>
                </mask>
                <g id="Clip-18"></g>
                <polygon id="Fill-17" fill="#2AB496" mask="url(#mask-2)" points="76.5789758 24.8982176 81.0659105 24.8982176 81.0659105 7.16701777 76.5789758 7.16701777"></polygon>
                <path d="M94.1846519,12.4504029 L94.1846519,19.5823948 C93.5126038,20.8307306 92.4928851,21.4376444 91.0689886,21.4376444 C89.9414316,21.4376444 89.0972736,21.0062913 88.4877717,20.1185667 C87.8610157,19.2053922 87.5431085,17.8996864 87.5431085,16.237683 C87.5431085,14.3354159 87.8636038,12.9024609 88.4959674,11.9776399 C89.1106456,11.0799941 89.9625679,10.6438962 91.1009087,10.6438962 C92.5230798,10.6438962 93.5328774,11.2348499 94.1846519,12.4504029 Z M94.1846519,0.000258811851 L94.1846519,8.28827697 C93.0916032,7.33412395 91.7285274,6.85143985 90.1221685,6.85143985 C87.9727361,6.85143985 86.2339518,7.69861731 84.9541272,9.37011051 C83.6945762,11.0148598 83.0557423,13.2143292 83.0557423,15.9064038 C83.0557423,18.7343546 83.7023406,21.0110362 84.9778517,22.6713142 C86.2736363,24.3587675 87.9934411,25.2141406 90.0902484,25.2141406 C91.8337776,25.2141406 93.2926137,24.6555384 94.4365621,23.5512745 L94.5810654,24.8979588 L98.672018,24.8979588 L98.672018,0.000258811851 L94.1846519,0.000258811851 Z" id="Fill-19" fill="#2AB496" mask="url(#mask-2)"></path>
                <path d="M108.30327,10.5804873 C109.27899,10.5804873 110.016173,10.8681998 110.556658,11.4608789 C111.096281,12.052264 111.412031,12.9512038 111.494851,14.1124063 L104.895149,14.1124063 C105.087532,13.0426507 105.457633,12.1898656 105.998119,11.5747561 C106.586053,10.9057275 107.340058,10.5804873 108.30327,10.5804873 Z M115.937357,15.7010797 C115.937357,12.9188523 115.271347,10.7284414 113.957015,9.19066763 C112.630172,7.63865923 110.733082,6.8510085 108.318798,6.8510085 C106.800436,6.8510085 105.403714,7.24526522 104.167456,8.02170077 C102.93163,8.79856767 101.95936,9.89722398 101.278253,11.2879063 C100.60146,12.6686675 100.258103,14.2547528 100.258103,16.0008701 L100.258103,16.4744958 C100.258103,19.0979853 101.051793,21.2327517 102.617173,22.820131 C104.183848,24.4088044 106.250892,25.2141406 108.760935,25.2141406 C110.224085,25.2141406 111.565593,24.9186638 112.748795,24.3359058 C113.93631,23.7501283 114.900384,22.9137346 115.613842,21.8491552 L115.766541,21.6218322 L113.239674,19.2109998 L113.018822,19.4952615 C111.96934,20.8445339 110.648536,21.5001906 108.981788,21.5001906 C107.808076,21.5001906 106.863413,21.1287956 106.093448,20.3640066 C105.396813,19.6716849 104.967185,18.7339233 104.813192,17.5735835 L115.937357,17.5735835 L115.937357,15.7010797 Z" id="Fill-20" fill="#23313A" mask="url(#mask-2)"></path>
                <path d="M126.575947,6.85122417 C124.708188,6.85122417 123.134181,7.46590232 121.884982,8.6797299 L121.800868,7.16654328 L117.552041,7.16654328 L117.552041,24.8981745 L122.039407,24.8981745 L122.039407,12.5015182 C122.741218,11.251457 123.766113,10.6436805 125.17103,10.6436805 C126.132516,10.6436805 126.823975,10.8701409 127.225565,11.3170227 C127.636644,11.7742569 127.844557,12.511008 127.844557,13.5070023 L127.844557,24.8981745 L132.331491,24.8981745 L132.331491,13.2805419 C132.265494,9.01445989 130.32915,6.85122417 126.575947,6.85122417" id="Fill-21" fill="#23313A" mask="url(#mask-2)"></path>
                <path d="M143.586787,21.2404729 C143.16061,21.3396841 142.734002,21.3901524 142.319041,21.3901524 C141.755693,21.3901524 141.372652,21.2805887 141.1807,21.0649122 C140.978395,20.8380205 140.876165,20.4359994 140.876165,19.8683387 L140.876165,10.6593817 L143.891323,10.6593817 L143.891323,7.16671582 L140.876165,7.16671582 L140.876165,3.01494238 L136.38923,3.01494238 L136.38923,7.16671582 L133.579396,7.16671582 L133.579396,10.6593817 L136.38923,10.6593817 L136.38923,20.0102539 C136.38923,23.4632353 137.986099,25.2140975 141.134976,25.2140975 C141.969213,25.2140975 142.848311,25.0881424 143.747251,24.8392517 L143.98622,24.7728233 L143.98622,21.1473006 L143.586787,21.2404729 Z" id="Fill-22" fill="#23313A" mask="url(#mask-2)"></path>
            </g>
        </g>
    </g>
</svg>