<?xml version="1.0" encoding="utf-8"?>
<!-- Generator: Adobe Illustrator 14.0.0, SVG Export Plug-In . SVG Version: 6.00 Build 43363)  -->
<!DOCTYPE svg PUBLIC "-//W3C//DTD SVG 1.1//EN" "http://www.w3.org/Graphics/SVG/1.1/DTD/svg11.dtd">
<svg version="1.1" id="Tryb_izolacji" xmlns="http://www.w3.org/2000/svg" xmlns:xlink="http://www.w3.org/1999/xlink" x="0px"
	 y="0px" width="164.49px" height="44.137px" viewBox="0 0 164.49 44.137" enable-background="new 0 0 164.49 44.137"
	 xml:space="preserve">
<path fill="#3A5C8D" d="M24.706,2.762H2.637c-1.446,0-2.634,1.175-2.634,2.63V26.77l0.291,0.009
	C13.621,26.778,24.493,16.035,24.706,2.762"/>
<path fill="#3A5C8D" d="M35.984,2.762h-2.91C32.859,20.653,18.24,35.139,0.295,35.139L0,35.126v3.607c0,1.454,1.192,2.64,2.637,2.64
	h33.347c1.442,0,2.638-1.186,2.638-2.64V5.393C38.622,3.938,37.426,2.762,35.984,2.762"/>
<path fill="#262C49" d="M53.665,43.857c-1.021-0.278-1.762-1.023-1.762-2.041c0-1.208,0.927-2.13,2.133-2.13
	c0.319,0,0.509,0.04,0.881,0.04c2.317,0,3.987-0.874,3.987-4.17V14.514c0-1.439,1.016-2.506,2.456-2.506
	c1.39,0,2.412,1.067,2.412,2.506v21.699c0,5.372-3.199,7.924-7.975,7.924C54.917,44.137,54.267,44.045,53.665,43.857 M64.605,4.037
	c0,1.758-1.485,3.15-3.245,3.15c-1.806,0-3.244-1.393-3.244-3.15c0-1.766,1.438-3.155,3.244-3.155
	C63.12,0.882,64.605,2.271,64.605,4.037 M77.262,23.784c0,1.974-1.669,3.534-3.641,3.534c-2.026,0-3.641-1.56-3.641-3.534
	c0-1.977,1.615-3.541,3.641-3.541C75.593,20.243,77.262,21.807,77.262,23.784"/>
<path fill="#262C49" d="M83.483,33.287V2.502C83.483,1.063,84.499,0,85.94,0c1.388,0,2.411,1.063,2.411,2.502v30.785
	c0,1.439-1.023,2.506-2.411,2.506C84.548,35.793,83.483,34.727,83.483,33.287"/>
<path fill="#262C49" d="M113.457,21.512v11.819c0,1.441-1.023,2.462-2.413,2.462c-1.389,0-2.407-1.066-2.407-2.462v-0.276
	c-1.671,1.763-4.083,2.738-7.002,2.738c-4.727,0-7.932-2.646-7.932-6.584c0-3.986,3.248-6.489,8.395-6.489h6.445v-1.492
	c0-3.104-1.764-4.861-4.871-4.861c-1.899,0-3.615,0.693-5.047,2.132c-0.606,0.51-1.118,0.739-1.674,0.739
	c-1.16,0-2.13-0.967-2.13-2.039c0-0.698,0.324-1.34,0.97-1.99c1.951-2.041,4.962-3.2,8.301-3.2
	C109.98,12.008,113.457,15.53,113.457,21.512 M108.543,26.658v-0.416h-5.844c-2.642,0-4.031,0.974-4.031,2.78
	c0,1.854,1.573,3.017,3.985,3.017C105.946,32.039,108.543,29.674,108.543,26.658"/>
<path fill="#262C49" d="M143.612,23.924c0,6.862-4.731,11.869-11.127,11.869c-3.248,0-5.979-1.254-7.698-3.335v0.829
	c0,1.486-1.017,2.506-2.361,2.506c-1.438,0-2.461-1.066-2.461-2.506V2.503c0-1.44,1.068-2.502,2.461-2.502
	c1.388,0,2.409,1.022,2.409,2.502v12.844c1.72-2.088,4.402-3.339,7.6-3.339C138.881,12.008,143.612,17.06,143.612,23.924
	 M138.604,23.88c0-4.267-2.922-7.422-6.956-7.422c-4.124,0-6.861,3.012-6.861,7.466c0,4.401,2.781,7.419,6.861,7.419
	C135.682,31.343,138.604,28.189,138.604,23.88"/>
<path fill="#262C49" d="M147.707,32.266c-0.465-0.413-0.696-0.922-0.696-1.576c0-1.154,0.973-2.126,2.177-2.126
	c0.511,0,1.022,0.178,1.532,0.646c1.437,1.345,3.153,2.366,5.331,2.366c1.992,0,3.661-0.841,3.661-2.551
	c0-1.481-1.341-2.085-3.198-2.829l-2.319-0.973c-3.66-1.531-5.932-3.199-5.932-6.633c0-4.219,3.522-6.581,8.021-6.581
	c2.923,0,5.469,1.066,7.233,2.78c0.508,0.463,0.741,1.021,0.741,1.623c0,1.159-0.926,2.087-2.041,2.087
	c-0.511,0-0.926-0.228-1.532-0.695c-1.205-0.927-2.781-1.572-4.496-1.572c-1.807,0-3.107,0.691-3.107,2.174
	c0,1.257,0.931,1.856,3.014,2.692l2.179,0.879c4.123,1.716,6.215,3.522,6.215,6.859c0,4.589-3.893,6.958-8.439,6.958
	C152.526,35.793,149.651,34.354,147.707,32.266"/>
</svg>
